version 1

nodes
0 "Object01" -1
1 "zx01" 0
2 "zx02" 0
3 "joint4" 2
4 "joint5" 3
5 "joint6" 2
6 "joint7" 5
7 "joint8" 2
8 "joint9" 7
9 "joint10" 2
10 "joint11" 9
11 "joint12" 2
end

skeleton
time 0
0 0.000006 -36.000000 0.000011 1.570796 -0.000000 0.000000
1 0.000001 0.000022 -63.344849 0.000000 -0.000000 0.000000
2 -0.000012 -0.000020 31.595551 0.000000 -0.000000 -0.279253
3 -4.874016 17.520721 3.704285 -2.898099 0.071210 -3.141592
4 0.000000 0.000000 22.152386 0.000000 -0.000000 0.000000
5 5.375000 -18.145748 4.148399 -2.872393 0.073546 0.000000
6 0.000000 0.000000 23.000437 0.000000 -0.000000 0.000000
7 17.229124 5.000000 2.665062 3.068758 0.256878 0.000000
8 0.000000 0.000000 20.585697 0.000000 -0.000000 0.000000
9 -17.253017 -5.000000 3.665054 3.072937 0.244312 -3.141592
10 0.000000 0.000000 21.309191 0.000000 -0.000000 0.000000
11 0.000553 0.000000 8.622208 0.000000 -0.000000 0.000000
time 1
0 0.000006 -36.000000 0.000011 1.570796 -0.000000 0.000000
1 0.000001 0.000022 -63.344849 0.000000 -0.000000 0.000000
2 -0.000012 -0.000020 31.595551 0.000000 -0.000000 -0.546870
3 -4.874016 17.520721 3.704285 -2.898099 0.071210 -3.141592
4 0.000000 0.000000 22.152386 0.000000 -0.000000 0.000000
5 5.375000 -18.145748 4.148399 -2.872393 0.073546 0.000000
6 0.000000 0.000000 23.000437 0.000000 -0.000000 0.000000
7 17.229124 5.000000 2.665062 3.068758 0.256878 0.000000
8 0.000000 0.000000 20.585697 0.000000 -0.000000 0.000000
9 -17.253017 -5.000000 3.665054 3.072937 0.244312 -3.141592
10 0.000000 0.000000 21.309191 0.000000 -0.000000 0.000000
11 0.000553 0.000000 8.622208 0.000000 -0.000000 0.000000
time 2
0 0.000006 -36.000000 0.000011 1.570796 -0.000000 0.000000
1 0.000001 0.000022 -63.344849 0.000000 -0.000000 0.000000
2 -0.000012 -0.000020 31.595551 0.000000 -0.000000 -1.082104
3 -4.874016 17.520721 3.704285 -2.898099 0.071210 -3.141592
4 0.000000 0.000000 22.152386 0.000000 -0.000000 0.000000
5 5.375000 -18.145748 4.148399 -2.872393 0.073546 0.000000
6 0.000000 0.000000 23.000437 0.000000 -0.000000 0.000000
7 17.229124 5.000000 2.665062 3.068758 0.256878 0.000000
8 0.000000 0.000000 20.585697 0.000000 -0.000000 0.000000
9 -17.253017 -5.000000 3.665054 3.072937 0.244312 -3.141592
10 0.000000 0.000000 21.309191 0.000000 -0.000000 0.000000
11 0.000553 0.000000 8.622208 0.000000 -0.000000 0.000000
time 3
0 0.000006 -36.000000 0.000011 1.570796 -0.000000 0.000000
1 0.000001 0.000022 -63.344849 0.000000 -0.000000 0.000000
2 -0.000012 -0.000020 31.595551 0.000000 -0.000000 -1.547525
3 -4.874016 17.520721 3.704285 -2.898099 0.071210 -3.141592
4 0.000000 0.000000 22.152386 0.000000 -0.000000 0.000000
5 5.375000 -18.145748 4.148399 -2.872393 0.073546 0.000000
6 0.000000 0.000000 23.000437 0.000000 -0.000000 0.000000
7 17.229124 5.000000 2.665062 3.068758 0.256878 0.000000
8 0.000000 0.000000 20.585697 0.000000 -0.000000 0.000000
9 -17.253017 -5.000000 3.665054 3.072937 0.244312 -3.141592
10 0.000000 0.000000 21.309191 0.000000 -0.000000 0.000000
11 0.000553 0.000000 8.622208 0.000000 -0.000000 0.000000
time 4
0 0.000006 -36.000000 0.000011 1.570796 -0.000000 0.000000
1 0.000001 0.000022 -63.344849 0.000000 -0.000000 0.000000
2 -0.000012 -0.000020 31.595551 0.000000 0.000000 -2.053671
3 -4.874016 17.520721 3.704285 -2.898099 0.071210 -3.141592
4 0.000000 0.000000 22.152386 0.000000 -0.000000 0.000000
5 5.375000 -18.145748 4.148399 -2.872393 0.073546 0.000000
6 0.000000 0.000000 23.000437 0.000000 -0.000000 0.000000
7 17.229124 5.000000 2.665062 3.068758 0.256878 0.000000
8 0.000000 0.000000 20.585697 0.000000 -0.000000 0.000000
9 -17.253017 -5.000000 3.665054 3.072937 0.244312 -3.141592
10 0.000000 0.000000 21.309191 0.000000 -0.000000 0.000000
11 0.000553 0.000000 8.622208 0.000000 -0.000000 0.000000
time 5
0 0.000006 -36.000000 0.000011 1.570796 -0.000000 0.000000
1 0.000001 0.000022 -63.344849 0.000000 -0.000000 0.000000
2 -0.000012 -0.000020 31.595551 0.000000 -0.000000 -2.600541
3 -4.874016 17.520721 3.704285 -2.898099 0.071210 -3.141592
4 0.000000 0.000000 22.152386 0.000000 -0.000000 0.000000
5 5.375000 -18.145748 4.148399 -2.872393 0.073546 0.000000
6 0.000000 0.000000 23.000437 0.000000 -0.000000 0.000000
7 17.229124 5.000000 2.665062 3.068758 0.256878 0.000000
8 0.000000 0.000000 20.585697 0.000000 -0.000000 0.000000
9 -17.253017 -5.000000 3.665054 3.072937 0.244312 -3.141592
10 0.000000 0.000000 21.309191 0.000000 -0.000000 0.000000
11 0.000553 0.000000 8.622208 0.000000 -0.000000 0.000000
time 6
0 0.000006 -36.000000 0.000011 1.570796 -0.000000 0.000000
1 0.000001 0.000022 -63.344849 0.000000 -0.000000 0.000000
2 -0.000012 -0.000020 31.595551 0.000000 -0.000000 -3.135775
3 -4.874016 17.520721 3.704285 -2.898099 0.071210 -3.141592
4 0.000000 0.000000 22.152386 0.000000 -0.000000 0.000000
5 5.375000 -18.145748 4.148399 -2.872393 0.073546 0.000000
6 0.000000 0.000000 23.000437 0.000000 -0.000000 0.000000
7 17.229124 5.000000 2.665062 3.068758 0.256878 0.000000
8 0.000000 0.000000 20.585697 0.000000 -0.000000 0.000000
9 -17.253017 -5.000000 3.665054 3.072937 0.244312 -3.141592
10 0.000000 0.000000 21.309191 0.000000 -0.000000 0.000000
11 0.000553 0.000000 8.622208 0.000000 -0.000000 0.000000
time 7
0 0.000006 -36.000000 0.000011 1.570796 -0.000000 0.000000
1 0.000001 0.000022 -63.344849 0.000000 -0.000000 0.000000
2 -0.000012 -0.000020 31.595551 0.000000 -0.000000 2.681989
3 -4.874016 17.520721 3.704285 -2.898099 0.071210 -3.141592
4 0.000000 0.000000 22.152386 0.000000 -0.000000 0.000000
5 5.375000 -18.145748 4.148399 -2.872393 0.073546 0.000000
6 0.000000 0.000000 23.000437 0.000000 -0.000000 0.000000
7 17.229124 5.000000 2.665062 3.068758 0.256878 0.000000
8 0.000000 0.000000 20.585697 0.000000 -0.000000 0.000000
9 -17.253017 -5.000000 3.665054 3.072937 0.244312 -3.141592
10 0.000000 0.000000 21.309191 0.000000 -0.000000 0.000000
11 0.000553 0.000000 8.622208 0.000000 -0.000000 0.000000
time 8
0 0.000006 -36.000000 0.000011 1.570796 -0.000000 0.000000
1 0.000001 0.000022 -63.344849 0.000000 -0.000000 0.000000
2 -0.000012 -0.000020 31.595551 0.000000 -0.000000 2.286381
3 -4.874016 17.520721 3.704285 -2.898099 0.071210 -3.141592
4 0.000000 0.000000 22.152386 0.000000 -0.000000 0.000000
5 5.375000 -18.145748 4.148399 -2.872393 0.073546 0.000000
6 0.000000 0.000000 23.000437 0.000000 -0.000000 0.000000
7 17.229124 5.000000 2.665062 3.068758 0.256878 0.000000
8 0.000000 0.000000 20.585697 0.000000 -0.000000 0.000000
9 -17.253017 -5.000000 3.665054 3.072937 0.244312 -3.141592
10 0.000000 0.000000 21.309191 0.000000 -0.000000 0.000000
11 0.000553 0.000000 8.622208 0.000000 -0.000000 0.000000
time 9
0 0.000006 -36.000000 0.000011 1.570796 -0.000000 0.000000
1 0.000001 0.000022 -63.344849 0.000000 -0.000000 0.000000
2 -0.000012 -0.000020 31.595551 0.000000 -0.000000 1.762783
3 -4.874016 17.520721 3.704285 -2.898099 0.071210 -3.141592
4 0.000000 0.000000 22.152386 0.000000 -0.000000 0.000000
5 5.375000 -18.145748 4.148399 -2.872393 0.073546 0.000000
6 0.000000 0.000000 23.000437 0.000000 -0.000000 0.000000
7 17.229124 5.000000 2.665062 3.068758 0.256878 0.000000
8 0.000000 0.000000 20.585697 0.000000 -0.000000 0.000000
9 -17.253017 -5.000000 3.665054 3.072937 0.244312 -3.141592
10 0.000000 0.000000 21.309191 0.000000 -0.000000 0.000000
11 0.000553 0.000000 8.622208 0.000000 -0.000000 0.000000
time 10
0 0.000006 -36.000000 0.000011 1.570796 -0.000000 0.000000
1 0.000001 0.000022 -63.344849 0.000000 -0.000000 0.000000
2 -0.000012 -0.000020 31.595551 0.000000 -0.000000 1.181007
3 -4.874016 17.520721 3.704285 -2.898099 0.071210 -3.141592
4 0.000000 0.000000 22.152386 0.000000 -0.000000 0.000000
5 5.375000 -18.145748 4.148399 -2.872393 0.073546 0.000000
6 0.000000 0.000000 23.000437 0.000000 -0.000000 0.000000
7 17.229124 5.000000 2.665062 3.068758 0.256878 0.000000
8 0.000000 0.000000 20.585697 0.000000 -0.000000 0.000000
9 -17.253017 -5.000000 3.665054 3.072937 0.244312 -3.141592
10 0.000000 0.000000 21.309191 0.000000 -0.000000 0.000000
11 0.000553 0.000000 8.622208 0.000000 -0.000000 0.000000
time 11
0 0.000006 -36.000000 0.000011 1.570796 -0.000000 0.000000
1 0.000001 0.000022 -63.344849 0.000000 -0.000000 0.000000
2 -0.000012 -0.000020 31.595551 0.000000 -0.000000 0.541053
3 -4.874016 17.520721 3.704285 -2.898099 0.071210 -3.141592
4 0.000000 0.000000 22.152386 0.000000 -0.000000 0.000000
5 5.375000 -18.145748 4.148399 -2.872393 0.073546 0.000000
6 0.000000 0.000000 23.000437 0.000000 -0.000000 0.000000
7 17.229124 5.000000 2.665062 3.068758 0.256878 0.000000
8 0.000000 0.000000 20.585697 0.000000 -0.000000 0.000000
9 -17.253017 -5.000000 3.665054 3.072937 0.244312 -3.141592
10 0.000000 0.000000 21.309191 0.000000 -0.000000 0.000000
11 0.000553 0.000000 8.622208 0.000000 -0.000000 0.000000
end
